<svg xmlns="http://www.w3.org/2000/svg" viewBox="0 0 197.997 60">
  <g transform="translate(-1286 -220)">
    <g transform="translate(1286 220)">
      <path class="cls-1" d="M1302.8,283.621c4.74,0,8.58-2.1,8.58-8.64V270.3c-1.26,2.94-5.16,6-10.62,6-5.94.06-14.76-3.18-14.76-16.38,0-10.02,6.24-16.32,14.76-16.32a11.913,11.913,0,0,1,10.74,6.12v-5.34h8.28v29.58c0,10.5-6.66,15.48-16.98,15.48-10.14,0-15.12-4.68-16.08-10.2h8.4C1296.02,282,1298.24,283.621,1302.8,283.621Zm.18-13.38c5.46,0,8.7-4.08,8.7-10.44v-.6c0-6.18-3.96-9.6-8.7-9.6-5.34,0-8.58,4.02-8.58,10.32a11.711,11.711,0,0,0,2.28,7.56A7.813,7.813,0,0,0,1302.98,270.241Z" transform="translate(-1286 -229.44)"/>
      <rect class="cls-1" width="8.94" height="8.1" transform="translate(42.18 2.7)"/>
      <rect class="cls-1" width="8.46" height="32.82" transform="translate(42.48 14.94)"/>
      <path class="cls-1" d="M1389.02,267.76V240.88h-4.62v-5.94h4.62v-4.68c0-6.72,4.02-10.32,10.92-10.26,1.08,0,1.8,0,2.58.06a9.5,9.5,0,0,1,2.28.3v6.24c-.54-.06-1.02-.12-1.56-.18-.54,0-1.08-.06-1.68-.06a4.1,4.1,0,0,0-3.12,1.08,4.421,4.421,0,0,0-1.02,3.18v4.26h6.78v5.94h-6.78V267.7h-8.4Z" transform="translate(-1325.361 -220)"/>
      <path class="cls-1" d="M1442.38,266.061a15.911,15.911,0,0,0,4.44-.66v6.3a20.818,20.818,0,0,1-6.66.96c-7.08,0-10.44-3-10.44-9.48v-17.82h-4.62v-5.94h4.62V231.2h8.4v8.22h7.98v5.94h-8.04v16.62C1438.06,265.281,1439.86,266.061,1442.38,266.061Z" transform="translate(-1341.641 -224.48)"/>
      <path class="cls-1" d="M1491.78,266.941h7.8c-1.38,6.96-6.72,10.98-15.06,10.98-5.46,0-9.3-1.56-12.24-4.62a17.47,17.47,0,0,1-4.68-12.48c0-10.44,6.96-17.22,16.74-17.22,6.54,0,11.52,3.3,13.8,8.34a24.75,24.75,0,0,1,1.74,10.86h-24.12a8.742,8.742,0,0,0,1.74,6c1.08,1.62,3.66,3,7.08,3a8.482,8.482,0,0,0,4.8-1.26A7.512,7.512,0,0,0,1491.78,266.941Zm-7.68-17.22c-4.38,0-7.8,2.64-8.1,7.68h15.72C1491.72,252.781,1488.66,249.721,1484.1,249.721Z" transform="translate(-1358.641 -229.44)"/>
      <path class="cls-1" d="M1551.78,266.941h7.8c-1.38,6.96-6.72,10.98-15.06,10.98-5.46,0-9.3-1.56-12.24-4.62a17.47,17.47,0,0,1-4.68-12.48c0-10.44,6.96-17.22,16.74-17.22,6.54,0,11.52,3.3,13.8,8.34a24.752,24.752,0,0,1,1.74,10.86h-24.12a9.061,9.061,0,0,0,1.68,6c1.08,1.62,3.66,3,7.08,3a8.483,8.483,0,0,0,4.8-1.26A7.218,7.218,0,0,0,1551.78,266.941Zm-7.68-17.22c-4.38,0-7.8,2.64-8.1,7.68h15.78C1551.72,252.781,1548.66,249.721,1544.1,249.721Z" transform="translate(-1382.642 -229.44)"/>
    </g>
    <path class="accent" d="M1603.032,234.491c-1.8.6-6.6,2.16-7.8,2.46a64.6,64.6,0,0,0,1.02-7.62,5.963,5.963,0,0,0-4.32,0,64.627,64.627,0,0,0,1.02,7.62c-1.2-.3-5.94-1.86-7.8-2.46a9.178,9.178,0,0,0-.48,3.6,40.162,40.162,0,0,0,7.56,1.5,32.755,32.755,0,0,0-6.18,5.7c1.08.72,2.88,1.98,4.26,2.88a48.966,48.966,0,0,1,3.72-6.72,43.346,43.346,0,0,1,3.72,6.72c1.38-.9,3.24-2.1,4.26-2.88a32.747,32.747,0,0,0-6.18-5.7,45.565,45.565,0,0,0,7.56-1.5A8.045,8.045,0,0,0,1603.032,234.491Z" transform="translate(-119.465 -3.571)"/>
  </g>
</svg>
